<?xml version="1.0" encoding="UTF-8"?>
<svg xmlns="http://www.w3.org/2000/svg" version="1.1" viewBox="0 0 128 128">
  <defs>
    <style>
      .cls-1 {
        fill: #fff;
      }
    </style>
  </defs>
  <!-- Generator: Adobe Illustrator 28.7.1, SVG Export Plug-In . SVG Version: 1.2.0 Build 142)  -->
  <g>
    <g id="Layer_1">
      <path id="X" class="cls-1" d="M71.1,64l24.3-24.3c2-2,2-5.1,0-7.1-2-2-5.1-2-7.1,0l-24.3,24.3-24.3-24.3c-2-2-5.1-2-7.1,0-2,2-2,5.1,0,7.1l24.3,24.3-24.3,24.3c-2,2-2,5.1,0,7.1,1,1,2.3,1.5,3.5,1.5s2.6-.5,3.5-1.5l24.3-24.3,24.3,24.3c1,1,2.3,1.5,3.5,1.5s2.6-.5,3.5-1.5c2-2,2-5.1,0-7.1l-24.3-24.3Z"/>
    </g>
  </g>
</svg>